The graves (2009)( Xvid) [NLUPPER]

In Skull City, Death is the least of your problems.

PLOT

Present day. Arizona. Megan and Abby Graves are inseparable sisters that couldn't be less alike. 
Megan just graduated ASU with a marketing degree. She's a self-assured, naturally attractive rock chick with a black belt that she likes to use. 
Abby just barely graduated high school. She's a cute, Hot Topic Goth who's caustic and afraid of her own shadow. 
They share one thing: a life-long obsession with comics and pop culture. Simply put, they are beautiful geeks. 
In a few days, Megan will start a new job at in New York. 
To send her off in style, the sisters go on a wild, pop culture bender that includes a trip to uncharted Arizona in search of a kitchy roadside attraction. 
Instead, Megan and Abby happen on Skull City Mine, a weather-beaten, abandoned mine town converted into a self-guided tour. 
But Skull City harbors terrible, vexing secrets. It appears to be haunted. Its caretakers are murderous. 
Victims' souls are ripped from their bodies right before their eyes, and that's only the beginning. 
When Megan suffers a near mortal wound, Abby must save her sister, but to do so, she must unlock the mystery of Skull City alone. 
Can Abby defeat the threats of Skull City and rescue Megan or are they doomed like all the other tourists before them? 


Verenigde Staten
Horror / Thriller
88 minuten

geregisseerd door Brian Pulido
met Clare Grant, Jillian Murray en Bill Moseley

Megan en Abby Graves zijn twee onafscheidelijke zusters. 
Megan is zojuist geslaagd voor haar marketing diploma en heeft gelijk een baan gevonden. 
Om dat te vieren gaan de twee er een weekend op uit. 
Hun plannen moet hen brengen naar het ongerepte Arizona met zijn prachtige hippe plekjes. 
In plaats hiervan komen ze terecht in het schimmige, verlaten mijnstadje Skull City Mine. 
Het stadje herbergt een aantal geheimen die het daglicht niet kunnen verdragen. 
Op zeker moment raakt Abby gewond. Om haar te redden moet Megan het mysterie van Skull City Mine zien te ontrafelen.


SUBS: Extern Dutch (SUB FILE)

General

Format                           : DivX
Format/Info                      : Hack of AVI
File size                        : 1.46 GiB
Duration                         : 1h 27mn
Overall bit rate                 : 2 382 Kbps

Video
ID                               : 0
Format                           : MPEG-4 Visual
Format profile                   : AdvancedSimple@L5
Format settings, BVOP            : Yes
Format settings, QPel            : No
Format settings, GMC             : No warppoints
Format settings, Matrix          : Custom
Muxing mode                      : Packed bitstream
Codec ID                         : DX50
Codec ID/Hint                    : DivX 5
Duration                         : 1h 27mn
Bit rate                         : 2 114 Kbps
Width                            : 720 pixels
Height                           : 416 pixels
Display aspect ratio             : 16:9
Frame rate                       : 29.970 fps
Resolution                       : 24 bits
Colorimetry                      : 4:2:0
Scan type                        : Progressive
Bits/(Pixel*Frame)               : 0.235
Stream size                      : 1.29 GiB (89%)
Title                            : Video 
Writing library                  : XviD 1.2.1 (UTC 2008-12-04)

Audio
ID                               : 1
Format                           : AC-3
Format/Info                      : Audio Coding 3
Codec ID                         : 2000
Duration                         : 1h 27mn
Bit rate mode                    : Constant
Bit rate                         : 256 Kbps
Channel(s)                       : 2 channels
Channel positions                : L R
Sampling rate                    : 48.0 KHz
Stream size                      : 160 MiB (11%)
Alignment                        : Split accross interleaves
Interleave, duration             : 33 ms (1.00 video frame)
Interleave, preload duration     : 500 ms
Title                            : Audio 

MM:    http://www.moviemeter.nl/film/54651

IMDB:    http://www.imdb.com/title/tt1203517/